<?xml version="1.0" encoding="UTF-8"?>
<svg xmlns="http://www.w3.org/2000/svg" version="1.1" width="16" height="16" viewBox="0 0 512 512">
  <g>
    <path style="opacity:0.99" fill="#7b5af5" d="M188.5 102.5C214.835 102.333 241.169 102.5 267.5 103C289.552 103.373 310.552 108.039 330.5 117C369.066 140.629 386.566 175.129 383 220.5C371.615 265.88 342.781 292.713 296.5 301C278.167 304.333 259.833 304.333 241.5 301C228.76 298.593 220.926 291.093 218 278.5C214.323 258.992 222.157 247.492 241.5 244C253.424 242.146 265.424 241.146 277.5 241C301.411 240.079 317.411 228.412 325.5 206C322.609 196.723 318.776 187.889 314 179.5C308.382 172.732 301.215 168.565 292.5 167C280.581 165.073 268.581 164.24 256.5 164.5C223.855 166.279 191.188 166.779 158.5 166C133.408 164.98 123.241 152.147 128 127.5C130.389 116.777 136.889 109.944 147.5 107C161.259 105.099 174.926 103.599 188.5 102.5Z"/>
  </g>
  <g>
    <path style="opacity:0.988" fill="#019ddc" d="M149.5 196.5C168.456 193.01 180.622 200.344 186 218.5C192.444 274.143 192.777 329.81 187 385.5C185.806 390.888 183.306 395.555 179.5 399.5C169.737 409.003 158.404 411.169 145.5 406C141.026 403.027 136.693 399.86 132.5 396.5C131.134 393.308 130.301 389.974 130 386.5C129.411 375.828 128.745 365.162 128 354.5C127.333 313.167 127.333 271.833 128 230.5C128.667 224.5 129.333 218.5 130 212.5C131.017 207.288 133.851 203.455 138.5 201C142.213 199.337 145.88 197.837 149.5 196.5Z"/>
  </g>
</svg>
